# xmcd CD database file
#
# Track frame offsets:
#	150
#	33698
#	66527
#	102545
#	132136
#	162255
#	198041
#	232415
#
# Disc length: 3533 seconds
#
# Revision: 0
# Processed by: cddbd v1.5.2PL0 Copyright (c) Steve Scherf et al.
# Submitted via: CDex 1.70beta2
#
DISCID=760dcb08
DTITLE=Keyon Harrold - Introducing Keyon Harrold
DYEAR=2009
DGENRE=Jazz
TTITLE0=TMF Nuttz
TTITLE1=Sudden Inspiration
TTITLE2=Shirley's Blues
TTITLE3=Keyon Beyond
TTITLE4=Amazing Grace/Lord My God
TTITLE5=Peace
TTITLE6=Hip Hop Joint
TTITLE7=The Awakening
EXTD=YEAR: 2009
EXTT0=
EXTT1=
EXTT2=
EXTT3=
EXTT4=
EXTT5=
EXTT6=
EXTT7=
PLAYORDER=
